<?xml version="1.0" standalone="no"?>
<!DOCTYPE svg PUBLIC "-//W3C//DTD SVG 20010904//EN"
 "http://www.w3.org/TR/2001/REC-SVG-20010904/DTD/svg10.dtd">
<svg version="1.0" xmlns="http://www.w3.org/2000/svg"
 width="1080.000000pt" height="1080.000000pt" viewBox="0 0 1080.000000 1080.000000"
 preserveAspectRatio="xMidYMid meet">
<metadata>
Created by potrace 1.14, written by Peter Selinger 2001-2017
</metadata>
<g transform="translate(0.000000,1080.000000) scale(0.100000,-0.100000)"
fill="#000000" stroke="none">
<path d="M4184 6970 c-134 -20 -257 -82 -354 -180 -119 -119 -170 -237 -170
-393 0 -150 46 -278 134 -374 93 -102 200 -158 546 -288 183 -69 239 -98 297
-158 87 -89 126 -187 127 -312 0 -246 -185 -386 -466 -353 -246 29 -427 206
-542 531 l-33 92 -54 0 -54 0 0 -190 c1 -104 5 -265 9 -357 l8 -168 58 0 58 0
31 50 c17 28 34 50 38 50 5 0 22 -8 38 -18 73 -43 239 -97 340 -112 398 -56
746 135 839 462 22 76 22 265 0 339 -63 213 -195 316 -608 473 -264 102 -363
160 -424 250 -46 69 -65 142 -60 235 6 121 58 201 170 262 61 33 67 34 173 34
125 0 177 -14 266 -74 61 -41 142 -142 187 -235 17 -35 47 -114 68 -177 20
-63 42 -117 48 -121 17 -12 94 -9 102 3 7 11 6 71 -5 464 l-6 230 -50 3 c-58
3 -61 1 -98 -55 -15 -24 -32 -43 -37 -43 -6 0 -27 10 -48 23 -149 92 -350 133
-528 107z"/>
<path d="M9551 6933 c-6 -21 -11 -43 -11 -50 0 -28 -82 -254 -278 -763 -115
-300 -224 -584 -242 -633 -19 -48 -38 -86 -43 -84 -5 1 -16 18 -23 37 -49 128
-126 328 -133 345 -5 11 -16 40 -26 65 -10 25 -21 54 -26 65 -8 18 -250 644
-285 735 -7 19 -37 96 -66 170 l-54 135 -359 0 -360 0 -3 -47 c-3 -52 -6 -50
91 -67 71 -13 151 -55 182 -96 13 -16 32 -50 42 -75 17 -42 18 -90 18 -780 l0
-735 -23 -50 c-13 -27 -33 -60 -44 -72 -31 -33 -178 -83 -244 -83 -24 0 -25
-2 -22 -52 l3 -53 50 -3 c28 -2 218 -1 423 3 l372 7 0 49 0 48 -42 11 c-191
46 -232 69 -272 147 -44 87 -46 133 -53 891 -5 668 -5 722 11 716 9 -3 16 -12
16 -19 0 -8 11 -40 24 -72 13 -32 92 -236 174 -453 82 -217 226 -594 318 -837
l169 -443 38 0 c29 0 39 5 47 23 5 12 53 132 106 267 113 288 148 379 283 720
55 140 147 374 205 520 57 145 108 266 114 268 11 3 25 -894 20 -1324 l-3
-281 -29 -37 c-37 -49 -78 -65 -190 -77 -49 -5 -94 -13 -99 -18 -4 -4 -7 -28
-5 -52 l3 -44 460 4 c321 3 462 7 468 15 4 6 6 29 5 51 l-3 40 -55 6 c-123 14
-190 46 -214 103 -11 26 -15 195 -21 822 -4 435 -4 809 0 832 10 62 49 95 132
115 37 10 78 17 90 17 44 0 53 10 53 61 l0 49 -340 0 -339 0 -10 -37z"/>
<path d="M5710 6941 l-275 -6 0 -44 c0 -51 -1 -50 124 -72 92 -16 131 -41 147
-94 8 -28 13 -290 18 -842 7 -787 7 -803 -12 -847 -26 -57 -61 -76 -172 -90
l-85 -11 -3 -53 -3 -52 408 0 c224 0 425 3 446 6 37 7 37 7 37 55 l0 47 -67 7
c-107 10 -160 26 -190 57 -27 28 -27 31 -35 211 -5 100 -7 270 -6 377 l3 195
107 3 106 3 44 -54 c24 -30 53 -67 66 -83 27 -34 173 -232 251 -343 30 -42
114 -164 186 -271 l131 -195 279 -3 c153 -1 282 1 286 5 4 5 5 29 2 56 -6 46
-6 47 -42 47 -89 0 -213 60 -291 139 -42 44 -584 752 -598 782 -1 3 10 11 25
17 194 73 258 109 340 189 110 108 158 269 134 447 -28 198 -171 338 -408 398
-68 17 -118 20 -378 22 -165 2 -424 0 -575 -3z m679 -122 c146 -25 260 -120
305 -253 21 -64 22 -251 1 -319 -49 -162 -189 -286 -357 -317 -31 -6 -109 -9
-175 -8 l-118 3 -3 440 c-1 242 0 446 3 453 6 16 251 17 344 1z"/>
<path d="M1810 6808 c0 -28 71 -122 81 -107 10 16 6 22 -58 98 -18 21 -22 23
-23 9z"/>
<path d="M1680 6783 c0 -46 12 -103 21 -103 10 0 11 39 3 93 -8 43 -24 50 -24
10z"/>
<path d="M1608 6795 c-8 -8 12 -119 24 -130 7 -7 9 9 5 54 -5 59 -16 89 -29
76z"/>
<path d="M1951 6781 c-23 -23 -27 -52 -11 -82 14 -24 30 -25 23 0 -2 10 0 36
6 57 13 46 9 52 -18 25z"/>
<path d="M2083 6748 c-6 -18 -14 -48 -18 -67 -11 -52 16 -35 31 20 6 24 13 50
15 58 8 29 -18 19 -28 -11z"/>
<path d="M1480 6751 c-5 -11 -10 -28 -10 -38 0 -25 28 -63 46 -63 12 0 12 4
-2 25 -9 13 -16 40 -16 60 0 40 -3 43 -18 16z"/>
<path d="M1360 6697 c0 -17 17 -32 45 -39 11 -3 28 -9 38 -13 12 -5 17 -2 17
8 0 9 -16 21 -37 28 -21 6 -44 16 -50 22 -9 7 -13 5 -13 -6z"/>
<path d="M2264 6635 c-8 -42 -7 -56 3 -59 9 -4 13 6 13 32 0 20 3 47 6 60 4
12 2 22 -3 22 -5 0 -13 -25 -19 -55z"/>
<path d="M1227 6654 c-7 -7 40 -101 55 -110 20 -13 18 6 -6 54 -26 52 -39 66
-49 56z"/>
<path d="M2374 6609 c11 -82 17 -104 26 -88 13 22 -3 132 -19 137 -11 4 -13
-5 -7 -49z"/>
<path d="M1187 6566 c21 -24 41 -42 45 -39 12 6 -20 61 -41 73 -40 21 -41 9
-4 -34z"/>
<path d="M1630 6565 c-327 -66 -588 -295 -693 -607 -51 -152 -60 -366 -22
-513 30 -117 108 -273 179 -359 l24 -29 53 16 c30 9 67 19 84 22 l30 7 -25
-21 c-14 -12 -49 -40 -78 -62 -30 -22 -51 -43 -48 -46 2 -3 26 0 53 6 83 18
165 31 200 31 19 0 57 10 84 21 55 24 85 27 141 16 33 -7 40 -5 68 24 34 36
35 37 50 169 9 75 8 107 -2 150 l-13 55 -43 3 c-24 2 -63 -4 -87 -14 -24 -9
-51 -14 -60 -11 -8 4 -14 1 -12 -5 1 -7 -9 -14 -24 -17 -34 -8 -79 -45 -79
-66 0 -11 -6 -15 -17 -11 -10 3 -31 8 -48 12 -16 4 -36 15 -43 25 -11 15 -17
16 -38 7 -22 -10 -27 -9 -35 5 -9 16 -12 16 -42 0 -18 -10 -42 -18 -54 -18
-21 -1 -22 3 -18 40 2 22 2 32 -1 23 -6 -19 -24 -25 -24 -9 0 5 -9 7 -20 4
-13 -4 -22 1 -26 13 -3 11 -12 31 -20 45 -17 33 1 82 28 73 9 -2 20 1 24 7 5
9 2 10 -9 6 -11 -4 -22 3 -34 24 -10 16 -28 32 -41 36 -33 8 -45 38 -37 90 5
32 10 43 20 39 8 -3 17 -1 21 5 3 6 10 6 17 1 18 -14 77 -2 77 15 0 9 6 13 14
10 8 -3 17 1 21 10 4 13 8 14 17 5 17 -17 31 -15 24 3 -3 9 0 15 9 15 8 0 15
-4 15 -10 0 -13 37 -13 45 -1 3 5 0 13 -6 17 -8 4 -7 9 2 15 11 6 11 11 1 21
-18 18 -15 28 9 28 17 0 20 4 15 23 -4 19 0 25 24 34 18 7 32 7 36 2 10 -17
42 -9 47 13 4 12 4 24 2 27 -3 2 -5 -1 -5 -7 0 -17 -27 -15 -34 3 -3 8 -11 15
-18 15 -7 0 -19 9 -26 20 -7 11 -19 20 -27 20 -19 0 -19 14 0 30 10 8 12 16 6
19 -19 12 1 50 30 60 26 9 31 8 39 -12 6 -16 9 -17 9 -5 1 13 8 16 36 11 31
-5 36 -2 52 26 10 17 23 29 30 26 7 -2 15 0 18 5 4 6 16 10 27 10 20 0 20 1 3
20 -17 19 -17 20 9 31 26 12 35 29 15 29 -5 0 -7 5 -3 11 3 6 1 15 -5 18 -9 6
-7 16 6 39 21 38 27 39 47 10 l16 -22 0 22 c0 15 8 24 25 28 14 3 25 10 25 16
0 5 5 6 10 3 6 -4 18 -1 27 6 13 11 17 10 28 -5 9 -11 20 -16 33 -12 27 9 52
-3 52 -25 0 -11 7 -19 16 -19 13 0 15 7 10 31 -6 30 -5 30 25 24 22 -5 29 -4
25 4 -4 6 -1 11 6 11 7 0 19 -9 26 -20 7 -11 18 -17 27 -14 8 4 15 1 15 -5 0
-6 6 -8 14 -5 8 3 21 -9 34 -30 15 -25 26 -33 39 -30 22 6 37 -9 46 -45 4 -17
1 -24 -13 -28 -31 -8 -34 -63 -3 -63 9 0 21 6 27 14 19 24 59 27 86 6 14 -11
19 -20 13 -20 -7 0 -13 -12 -13 -27 0 -21 3 -24 12 -15 35 35 87 -11 69 -60
-11 -31 -13 -107 -2 -90 6 10 14 11 27 4 11 -5 32 -15 48 -21 22 -9 26 -15 17
-25 -6 -7 -8 -16 -4 -20 4 -4 1 -11 -7 -16 -18 -11 -1 -33 28 -35 14 -1 18 4
14 17 -7 29 18 70 40 65 11 -3 18 0 18 8 0 7 6 15 13 18 9 3 9 8 -2 21 -16 19
-14 23 14 27 23 4 65 -17 65 -31 0 -21 41 -51 61 -45 10 4 19 3 19 -2 0 -4 12
-21 26 -36 23 -25 24 -30 11 -45 -8 -9 -14 -31 -14 -48 0 -42 -23 -91 -50
-103 -30 -14 -32 -61 -3 -61 24 0 26 -13 4 -31 -24 -20 -46 -68 -39 -89 7 -23
-9 -34 -24 -16 -15 18 -59 8 -66 -15 -4 -10 -19 -28 -35 -39 -22 -16 -34 -18
-54 -10 -14 5 -26 16 -26 25 0 8 -9 15 -20 15 -22 0 -26 -20 -8 -38 9 -9 7
-12 -10 -12 -12 0 -22 -4 -22 -10 0 -5 -7 -10 -15 -10 -8 0 -15 -4 -15 -9 0
-15 -51 -20 -56 -6 -8 19 -43 26 -65 12 -15 -9 -22 -8 -35 5 -13 13 -14 20 -4
38 11 21 11 22 -11 17 -13 -4 -27 -7 -31 -7 -4 0 -5 -6 -2 -14 6 -15 -22 -66
-36 -66 -5 0 -6 9 -3 20 7 28 -18 26 -45 -3 -27 -28 -28 -52 -4 -67 16 -9 15
-11 -6 -29 -12 -11 -27 -21 -33 -23 -14 -5 -27 -86 -21 -127 6 -42 62 -103
108 -120 22 -7 70 -29 108 -47 39 -19 79 -34 91 -34 12 0 26 -5 33 -12 17 -17
222 -16 302 2 l65 15 -40 7 c-22 3 -59 10 -82 14 -51 8 -55 20 -12 38 17 7 38
24 47 38 85 127 113 172 130 210 140 309 99 677 -104 938 -181 234 -443 362
-737 359 -56 0 -131 -7 -167 -14z"/>
<path d="M2500 6573 c0 -5 -18 -26 -39 -48 -28 -29 -36 -44 -29 -52 7 -9 21 1
53 39 40 49 47 68 24 68 -5 0 -9 -3 -9 -7z"/>
<path d="M1110 6545 c1 -39 21 -65 51 -65 13 0 19 4 13 8 -6 4 -23 25 -37 47
l-27 40 0 -30z"/>
<path d="M2550 6520 c0 -12 -15 -37 -34 -56 -32 -32 -32 -34 -12 -34 44 0 89
84 56 105 -5 3 -10 -4 -10 -15z"/>
<path d="M976 6462 c-6 -10 80 -102 96 -102 14 0 8 14 -16 40 -44 48 -74 71
-80 62z"/>
<path d="M2610 6381 c-25 -22 -42 -43 -38 -47 8 -8 98 62 98 77 0 16 -14 9
-60 -30z"/>
<path d="M907 6374 c-9 -9 92 -86 104 -79 5 4 -3 16 -18 28 -15 12 -37 30 -47
39 -21 19 -29 22 -39 12z"/>
<path d="M2675 6309 c-40 -30 -55 -49 -38 -49 10 0 113 69 113 75 0 14 -40 1
-75 -26z"/>
<path d="M810 6243 c0 -15 90 -64 112 -61 17 2 9 10 -40 36 -67 34 -72 36 -72
25z"/>
<path d="M1875 6240 c-3 -5 -1 -10 4 -10 6 0 11 5 11 10 0 6 -2 10 -4 10 -3 0
-8 -4 -11 -10z"/>
<path d="M2726 6209 c-14 -11 -26 -27 -26 -35 0 -13 5 -12 28 4 15 11 37 23
50 26 12 4 22 12 22 17 0 17 -47 9 -74 -12z"/>
<path d="M770 6146 c0 -7 8 -16 18 -19 9 -3 36 -15 60 -26 32 -15 42 -17 42
-7 0 8 -25 25 -55 40 -65 30 -65 30 -65 12z"/>
<path d="M1951 6139 c-12 -20 -11 -21 11 -16 12 4 31 7 41 7 16 0 17 2 3 15
-20 21 -39 19 -55 -6z"/>
<path d="M2803 6088 c-56 -22 -72 -44 -25 -35 46 10 103 37 97 47 -8 12 -8 12
-72 -12z"/>
<path d="M732 6050 c2 -6 28 -20 58 -31 64 -23 60 -22 60 -6 0 11 -20 19 -109
45 -7 2 -12 -1 -9 -8z"/>
<path d="M2110 6043 c0 -7 9 -13 20 -13 11 0 20 6 20 13 0 7 -9 13 -20 13 -11
0 -20 -6 -20 -13z"/>
<path d="M2845 6020 c-22 -11 -49 -21 -60 -24 -14 -4 -17 -8 -9 -16 14 -14
124 27 124 46 0 17 -6 17 -55 -6z"/>
<path d="M2070 6020 c0 -5 5 -10 10 -10 6 0 10 5 10 10 0 6 -4 10 -10 10 -5 0
-10 -4 -10 -10z"/>
<path d="M1980 6000 c0 -5 7 -7 15 -4 8 4 15 8 15 10 0 2 -7 4 -15 4 -8 0 -15
-4 -15 -10z"/>
<path d="M1634 5976 c-4 -10 3 -24 17 -36 34 -28 42 -25 24 9 -19 37 -33 47
-41 27z"/>
<path d="M701 5965 c3 -14 18 -23 49 -31 25 -7 51 -13 59 -15 7 -2 15 1 17 7
3 5 -19 16 -48 23 -29 8 -59 18 -67 24 -10 9 -13 7 -10 -8z"/>
<path d="M2861 5905 c-37 -48 -39 -55 -21 -55 11 0 20 5 20 11 0 6 14 27 30
46 17 18 30 38 30 43 0 22 -20 7 -59 -45z"/>
<path d="M1725 5930 c3 -5 8 -10 11 -10 2 0 4 5 4 10 0 6 -5 10 -11 10 -5 0
-7 -4 -4 -10z"/>
<path d="M1790 5861 c0 -6 4 -13 10 -16 6 -3 7 1 4 9 -7 18 -14 21 -14 7z"/>
<path d="M723 5831 c-28 -27 -33 -41 -12 -41 4 0 21 12 38 26 17 14 38 24 46
21 9 -4 12 -1 8 9 -8 23 -45 16 -80 -15z"/>
<path d="M1652 5820 c-10 -17 -10 -20 3 -20 8 0 15 9 15 20 0 11 -1 20 -3 20
-1 0 -8 -9 -15 -20z"/>
<path d="M2057 5820 c-3 -11 -1 -20 4 -20 5 0 9 9 9 20 0 11 -2 20 -4 20 -2 0
-6 -9 -9 -20z"/>
<path d="M1375 5820 c-4 -6 -11 -7 -17 -4 -8 5 -9 1 -5 -10 4 -10 7 -20 7 -22
0 -2 11 -4 25 -4 16 0 25 6 25 16 0 10 -6 14 -14 11 -10 -4 -13 -1 -9 9 6 16
-3 19 -12 4z"/>
<path d="M2844 5806 c-26 -19 -14 -28 24 -17 17 5 41 7 54 4 22 -4 22 -4 4 11
-25 20 -56 20 -82 2z"/>
<path d="M2004 5764 c3 -9 6 -29 6 -45 0 -18 4 -28 10 -24 19 12 9 85 -12 85
-6 0 -7 -7 -4 -16z"/>
<path d="M2390 5776 c0 -2 7 -9 15 -16 12 -10 15 -10 15 4 0 9 -7 16 -15 16
-8 0 -15 -2 -15 -4z"/>
<path d="M1350 5762 c0 -15 32 -24 44 -12 7 7 7 10 -1 10 -6 0 -18 3 -27 6 -9
3 -16 2 -16 -4z"/>
<path d="M705 5719 c-45 -34 -54 -49 -30 -49 17 0 104 60 105 73 0 16 -37 4
-75 -24z"/>
<path d="M2165 5740 c-4 -6 -3 -16 3 -22 6 -6 12 -6 17 2 4 6 3 16 -3 22 -6 6
-12 6 -17 -2z"/>
<path d="M2882 5733 c-45 -4 -52 -6 -42 -19 15 -18 69 -18 93 0 17 13 23 28
10 24 -5 -1 -32 -3 -61 -5z"/>
<path d="M1748 5723 c7 -3 16 -2 19 1 4 3 -2 6 -13 5 -11 0 -14 -3 -6 -6z"/>
<path d="M2820 5651 c0 -9 118 -24 131 -15 25 15 2 24 -61 24 -38 0 -70 -4
-70 -9z"/>
<path d="M703 5613 c-47 -5 -60 -23 -15 -23 45 0 102 12 102 21 0 9 -6 9 -87
2z"/>
<path d="M2087 5589 c-3 -12 -4 -26 -1 -31 8 -13 56 -9 84 7 25 14 25 14 3 15
-13 0 -23 4 -23 9 0 5 -9 7 -21 4 -12 -3 -24 0 -29 6 -5 9 -9 6 -13 -10z"/>
<path d="M1910 5547 c0 -15 4 -27 10 -27 5 0 9 9 7 20 -5 31 -17 36 -17 7z"/>
<path d="M1656 5534 c-6 -17 16 -30 68 -39 28 -6 37 -5 32 4 -4 6 -13 11 -20
11 -8 0 -19 6 -25 14 -17 20 -49 26 -55 10z"/>
<path d="M2832 5538 c-8 -10 2 -14 44 -15 30 -1 54 1 54 6 0 22 -81 29 -98 9z"/>
<path d="M1530 5526 c0 -2 13 -9 29 -14 25 -9 29 -8 24 4 -4 12 -53 21 -53 10z"/>
<path d="M743 5461 c-35 -9 -63 -21 -63 -28 0 -16 23 -16 80 1 26 8 46 20 48
30 2 9 2 15 0 14 -2 0 -31 -8 -65 -17z"/>
<path d="M2822 5464 c5 -28 51 -41 85 -24 l28 14 -45 6 c-25 3 -51 9 -58 14
-10 6 -13 3 -10 -10z"/>
<path d="M743 5384 c-24 -14 -43 -32 -43 -40 0 -10 4 -12 13 -7 6 5 29 19 50
32 20 12 37 27 37 32 0 14 -12 11 -57 -17z"/>
<path d="M2806 5403 c-4 -4 13 -13 36 -20 59 -17 67 -16 39 7 -23 20 -61 26
-75 13z"/>
<path d="M1761 5384 c-1 -28 24 -90 32 -77 3 5 0 21 -8 36 -7 14 -15 34 -18
44 -4 15 -5 14 -6 -3z"/>
<path d="M2772 5338 c5 -15 28 -23 28 -10 0 5 -7 13 -16 16 -10 4 -14 1 -12
-6z"/>
<path d="M826 5278 c-9 -13 -27 -22 -43 -23 -14 0 -28 -5 -30 -12 -3 -8 6 -9
29 -4 42 10 78 32 78 48 0 20 -17 15 -34 -9z"/>
<path d="M2740 5259 c0 -21 41 -35 88 -31 56 5 53 19 -5 24 -27 3 -56 8 -65
12 -12 6 -18 4 -18 -5z"/>
<path d="M860 5237 c-51 -20 -90 -42 -90 -50 0 -11 42 -1 92 22 42 19 40 45
-2 28z"/>
<path d="M1762 5220 c0 -14 2 -19 5 -12 2 6 2 18 0 25 -3 6 -5 1 -5 -13z"/>
<path d="M1788 5164 c-3 -12 -2 -28 3 -35 12 -20 16 -8 9 26 -5 27 -6 28 -12
9z"/>
<path d="M888 5159 c-10 -5 -18 -21 -18 -35 0 -14 -5 -34 -10 -45 -8 -15 -7
-19 4 -19 9 0 19 8 24 18 8 15 24 92 19 92 -1 0 -10 -5 -19 -11z"/>
<path d="M1825 5120 c-3 -5 1 -10 10 -10 9 0 13 5 10 10 -3 6 -8 10 -10 10 -2
0 -7 -4 -10 -10z"/>
<path d="M1760 5101 c0 -5 5 -13 10 -16 6 -3 10 -2 10 4 0 5 -4 13 -10 16 -5
3 -10 2 -10 -4z"/>
<path d="M1990 4969 c0 -5 5 -7 10 -4 6 3 10 8 10 11 0 2 -4 4 -10 4 -5 0 -10
-5 -10 -11z"/>
<path d="M1948 4963 c7 -3 16 -2 19 1 4 3 -2 6 -13 5 -11 0 -14 -3 -6 -6z"/>
<path d="M2088 4943 c7 -3 16 -2 19 1 4 3 -2 6 -13 5 -11 0 -14 -3 -6 -6z"/>
<path d="M2168 4943 c6 -2 18 -2 25 0 6 3 1 5 -13 5 -14 0 -19 -2 -12 -5z"/>
<path d="M1282 4875 c0 -16 2 -22 5 -12 2 9 2 23 0 30 -3 6 -5 -1 -5 -18z"/>
<path d="M1862 4855 c0 -16 2 -22 5 -12 2 9 2 23 0 30 -3 6 -5 -1 -5 -18z"/>
<path d="M2472 4840 c0 -19 2 -27 5 -17 2 9 2 25 0 35 -3 9 -5 1 -5 -18z"/>
<path d="M1132 4830 c0 -14 2 -19 5 -12 2 6 2 18 0 25 -3 6 -5 1 -5 -13z"/>
<path d="M2618 4843 c7 -3 16 -2 19 1 4 3 -2 6 -13 5 -11 0 -14 -3 -6 -6z"/>
<path d="M4110 4563 c-27 -12 -42 -33 -47 -71 -6 -44 20 -83 72 -108 39 -18
53 -48 34 -70 -20 -24 -52 -12 -78 29 -30 46 -45 35 -36 -27 6 -36 10 -44 20
-36 9 8 15 8 20 0 9 -15 73 -12 100 6 28 18 45 61 38 98 -5 24 -36 53 -87 82
-31 17 -42 40 -27 58 23 27 46 18 72 -26 l24 -43 3 49 c2 26 2 49 0 51 -7 7
-94 14 -108 8z"/>
<path d="M5620 4554 c-36 -24 -49 -43 -61 -88 -34 -127 72 -241 167 -180 37
25 57 72 57 135 0 66 -23 112 -69 134 -41 19 -64 19 -94 -1z m80 -30 c8 -8 15
-49 17 -92 4 -87 -9 -125 -45 -130 -29 -4 -52 47 -52 118 0 94 43 150 80 104z"/>
<path d="M6133 4560 c-28 -11 -43 -40 -43 -82 0 -39 24 -69 75 -93 40 -20 54
-50 32 -72 -23 -23 -62 -9 -77 26 -21 51 -40 47 -40 -8 0 -48 0 -48 38 -55 65
-10 88 -7 116 19 19 18 26 34 26 62 0 49 -18 75 -69 98 -42 19 -56 40 -45 69
11 28 47 14 69 -27 12 -20 25 -34 28 -30 9 9 9 81 0 86 -18 11 -90 15 -110 7z"/>
<path d="M6355 4556 c-56 -25 -83 -95 -71 -181 15 -94 110 -138 170 -79 26 27
33 49 18 58 -5 3 -15 -6 -22 -19 -18 -34 -74 -35 -92 -2 -18 34 -14 151 6 182
24 37 56 30 79 -17 9 -21 22 -38 27 -38 12 0 14 87 3 93 -23 14 -91 15 -118 3z"/>
<path d="M7173 4554 c-54 -27 -85 -121 -63 -190 30 -94 109 -124 169 -63 33
32 37 44 21 54 -5 3 -17 -6 -26 -20 -12 -18 -25 -25 -49 -25 -42 0 -55 29 -55
118 0 73 17 112 49 112 21 0 47 -27 52 -54 2 -11 10 -21 17 -24 8 -2 12 10 12
42 0 51 -1 51 -55 60 -27 4 -50 1 -72 -10z"/>
<path d="M7680 4557 c-29 -15 -40 -50 -27 -96 7 -27 5 -37 -12 -55 -27 -29
-29 -96 -3 -119 23 -21 60 -21 86 -2 16 12 20 12 33 -1 15 -14 93 -20 93 -6 0
4 -14 19 -31 33 -37 30 -35 58 6 107 14 17 25 33 25 36 0 3 -18 6 -40 6 l-40
0 6 -42 7 -43 -22 19 c-22 20 -28 60 -11 71 20 12 11 73 -12 89 -27 19 -26 19
-58 3z m48 -58 c-1 -13 -7 -23 -13 -22 -13 3 -18 30 -11 50 10 24 29 1 24 -28z
m-19 -139 c25 -49 26 -50 3 -50 -27 0 -42 20 -42 57 0 44 13 42 39 -7z"/>
<path d="M8423 4551 c-80 -50 -85 -214 -8 -265 41 -27 89 -21 119 15 37 44 35
71 -3 35 -43 -41 -82 -34 -99 19 -16 46 -10 132 10 164 7 11 22 21 34 21 23 0
54 -38 54 -65 0 -8 7 -15 15 -15 11 0 15 11 15 38 0 51 -8 59 -60 66 -35 5
-52 3 -77 -13z"/>
<path d="M9174 4554 c-45 -22 -64 -62 -64 -136 0 -94 41 -147 114 -148 119 -1
159 213 51 280 -38 24 -59 25 -101 4z m80 -36 c16 -23 22 -139 10 -186 -9 -31
-53 -41 -71 -17 -17 24 -18 178 -1 205 17 26 43 25 62 -2z"/>
<path d="M9631 4558 c-42 -22 -64 -63 -69 -125 -2 -32 -9 -62 -16 -68 -6 -5
-19 -23 -29 -38 -14 -21 -25 -27 -45 -25 l-27 3 -3 113 c-2 93 0 113 13 118
28 11 4 24 -44 24 -56 0 -67 -7 -45 -31 12 -14 15 -37 12 -121 -2 -56 -7 -111
-12 -120 -7 -16 0 -18 81 -18 100 0 113 6 114 60 0 19 3 28 6 20 3 -8 19 -30
36 -47 36 -38 81 -44 127 -17 75 45 82 194 12 257 -26 24 -81 31 -111 15z m80
-44 c16 -32 16 -162 -1 -193 -15 -29 -50 -24 -67 9 -18 36 -17 160 3 188 20
29 47 28 65 -4z"/>
<path d="M9884 4561 c-51 -22 -82 -104 -70 -186 14 -89 97 -131 176 -90 24 13
30 22 30 50 0 18 7 40 15 48 20 21 9 27 -47 27 -50 0 -59 -8 -33 -30 23 -19
19 -67 -6 -81 -18 -9 -25 -7 -43 10 -17 17 -21 36 -24 99 -3 90 11 127 48 127
19 0 30 -10 45 -37 11 -21 23 -38 28 -38 4 0 7 20 7 44 0 25 -3 47 -7 49 -18
11 -100 16 -119 8z"/>
<path d="M3677 4553 c-4 -3 0 -15 8 -27 20 -28 20 -181 1 -218 -18 -33 -13
-38 40 -38 45 0 64 14 45 33 -7 7 -11 53 -11 119 0 89 3 110 15 115 9 3 25 -3
35 -12 17 -16 20 -31 20 -116 0 -86 -2 -99 -20 -112 -27 -19 -15 -27 37 -27
47 0 51 5 28 31 -12 12 -15 34 -13 88 l3 72 59 -96 c32 -52 65 -95 72 -95 11
0 14 26 14 120 0 105 2 122 19 139 24 24 18 31 -31 31 -42 0 -46 -5 -22 -31
11 -12 14 -33 12 -78 l-3 -61 -50 83 -50 82 -101 2 c-56 1 -104 0 -107 -4z"/>
<path d="M4247 4553 c-10 -9 -9 -61 1 -67 5 -3 19 8 31 25 12 16 26 27 32 24
5 -4 9 -55 9 -114 0 -84 -3 -111 -15 -121 -23 -19 -8 -30 45 -30 53 0 68 11
45 30 -21 18 -22 230 -1 230 7 0 21 -11 30 -25 20 -30 36 -24 36 12 0 21 2 24
15 13 22 -18 22 -212 0 -230 -22 -18 -2 -30 53 -30 42 0 54 14 32 36 -7 7 -10
54 -8 120 2 89 6 109 18 109 9 0 16 -11 18 -27 3 -28 22 -40 22 -15 0 18 34
49 43 40 4 -3 7 -55 7 -113 0 -83 -3 -110 -15 -120 -23 -19 -8 -30 38 -30 54
0 74 12 52 30 -12 10 -15 35 -15 122 0 99 2 109 18 106 9 -2 21 -13 27 -26 14
-31 25 -28 25 8 0 32 9 37 28 18 8 -8 12 -45 12 -100 0 -127 24 -163 105 -156
61 5 78 37 83 158 4 97 15 126 28 75 6 -26 24 -35 24 -12 0 18 34 49 43 40 4
-3 7 -55 7 -113 0 -83 -3 -110 -15 -120 -23 -19 -8 -30 45 -30 53 0 68 11 45
30 -22 18 -22 230 0 230 8 0 21 -13 30 -30 9 -16 18 -30 20 -30 3 0 5 20 5 45
l0 45 -142 -1 c-78 0 -146 -3 -151 -6 -4 -3 0 -14 9 -24 22 -25 30 -119 15
-177 -11 -39 -14 -42 -45 -42 -22 0 -36 6 -40 16 -10 26 -7 202 4 209 6 3 10
10 10 15 0 10 -653 13 -663 3z"/>
<path d="M5270 4551 c0 -5 7 -14 15 -21 12 -10 15 -36 15 -117 0 -83 -3 -105
-15 -109 -8 -4 -15 -13 -15 -20 0 -12 18 -14 98 -12 l97 3 3 43 c4 47 -8 54
-28 17 -14 -27 -49 -41 -76 -31 -21 8 -16 101 6 101 8 0 19 -10 26 -22 15 -32
24 -18 24 38 0 50 -14 73 -23 39 -3 -12 -14 -20 -27 -20 -19 0 -21 5 -18 47 4
58 25 67 63 29 14 -14 28 -26 30 -26 3 0 5 16 5 35 l0 35 -90 0 c-49 0 -90 -4
-90 -9z"/>
<path d="M5815 4550 c-3 -5 -1 -10 4 -10 14 0 15 -226 1 -235 -23 -14 -7 -25
39 -25 54 0 70 10 46 30 -16 14 -21 85 -6 94 15 10 40 -4 47 -26 9 -31 24 -2
24 48 0 54 -8 59 -39 26 l-26 -27 -3 54 c-2 29 -1 56 2 58 12 12 53 -8 66 -32
17 -31 33 -19 28 21 l-3 29 -87 3 c-52 2 -89 -1 -93 -8z"/>
<path d="M6496 4551 c-3 -5 1 -11 9 -15 12 -4 15 -27 15 -119 0 -73 -4 -117
-12 -125 -16 -16 9 -24 58 -20 29 2 38 7 34 18 -10 33 -11 233 -1 243 6 6 11
15 11 19 0 11 -107 10 -114 -1z"/>
<path d="M6640 4552 c0 -4 5 -13 11 -19 10 -10 9 -210 -1 -243 -4 -13 15 -15
130 -17 158 -2 170 0 146 26 -13 15 -16 34 -14 90 l3 71 58 -95 c32 -52 65
-95 73 -95 11 0 14 24 14 124 0 98 3 126 15 136 25 20 17 30 -23 30 -50 0 -57
-8 -32 -35 17 -18 21 -33 18 -80 l-3 -58 -53 86 c-51 85 -54 87 -91 87 -49 0
-55 -7 -31 -38 34 -43 25 -232 -10 -232 -6 0 -10 16 -10 35 0 41 -16 46 -32
10 -12 -26 -47 -41 -73 -31 -18 7 -21 91 -3 102 6 4 21 -5 35 -22 l23 -29 -1
65 c0 62 -1 64 -16 43 -8 -13 -24 -23 -35 -23 -17 0 -19 6 -16 47 4 60 30 70
65 27 25 -32 47 -23 41 17 -3 23 -7 24 -95 27 -51 1 -93 -1 -93 -6z"/>
<path d="M7326 4551 c-3 -5 1 -11 9 -15 12 -4 15 -27 15 -120 0 -97 -2 -115
-17 -120 -38 -15 8 -27 93 -24 86 3 89 4 98 29 5 15 6 35 2 45 -7 18 -8 18
-21 -1 -28 -40 -37 -46 -63 -43 -25 3 -27 7 -30 56 -2 41 0 52 12 52 8 0 20
-9 26 -20 18 -34 30 -22 30 30 0 48 -14 67 -26 35 -4 -8 -15 -15 -25 -15 -16
0 -19 8 -19 50 0 44 3 50 20 50 12 0 31 -11 44 -25 31 -33 36 -32 36 10 l0 35
-89 0 c-50 0 -92 -4 -95 -9z"/>
<path d="M7924 4546 c-8 -22 -1 -59 14 -64 6 -2 12 3 12 11 0 17 34 49 43 40
4 -3 7 -55 7 -113 0 -83 -3 -110 -15 -120 -23 -19 -8 -30 45 -30 53 0 68 11
45 30 -22 18 -22 230 0 230 8 0 22 -15 32 -32 l17 -33 7 40 c4 22 5 43 2 48
-2 4 -49 7 -104 7 -77 0 -101 -3 -105 -14z"/>
<path d="M8150 4553 c0 -5 7 -17 15 -27 21 -27 20 -193 0 -220 -8 -10 -12 -23
-9 -27 6 -10 154 -12 178 -3 11 4 16 19 16 45 0 45 -11 50 -30 14 -14 -27 -49
-41 -75 -31 -18 7 -21 91 -3 102 6 4 21 -5 35 -22 l23 -29 0 63 c0 60 -12 83
-23 42 -3 -12 -14 -20 -27 -20 -19 0 -21 5 -18 47 4 61 26 68 68 21 l30 -32 0
42 0 42 -90 0 c-49 0 -90 -3 -90 -7z"/>
<path d="M8580 4553 c0 -5 7 -17 15 -27 21 -27 20 -193 0 -220 -20 -27 -10
-36 39 -36 48 0 61 7 45 26 -5 7 -11 34 -12 61 l-2 48 40 0 40 0 3 -44 c2 -30
-2 -49 -14 -62 -15 -16 -15 -19 -1 -24 8 -4 32 -5 53 -3 29 2 38 7 34 18 -10
33 -11 233 -1 243 20 20 11 27 -37 27 -57 0 -68 -7 -46 -31 9 -10 14 -30 12
-51 -3 -30 -6 -33 -40 -36 -26 -2 -38 1 -39 10 0 7 -2 22 -4 33 -2 11 3 30 11
42 7 12 14 25 14 28 0 3 -25 5 -55 5 -30 0 -55 -3 -55 -7z"/>
<path d="M8846 4551 c-4 -6 2 -16 14 -23 18 -12 20 -23 20 -115 0 -90 -2 -103
-20 -116 -27 -19 -15 -27 37 -27 45 0 53 9 28 30 -11 9 -15 32 -15 81 0 38 3
69 8 69 4 0 32 -41 62 -90 30 -50 60 -90 67 -90 10 0 13 29 13 118 0 103 2
121 19 139 25 26 18 33 -31 33 -42 0 -46 -5 -22 -31 11 -12 14 -33 12 -78 l-3
-61 -50 83 c-49 80 -51 82 -92 85 -22 2 -44 -2 -47 -7z"/>
<path d="M10040 4551 c0 -6 5 -13 11 -17 6 -4 24 -35 40 -70 30 -66 38 -141
18 -161 -19 -19 0 -33 46 -33 46 0 65 14 46 33 -31 31 -1 150 54 215 27 33 24
42 -15 42 -34 0 -42 -8 -28 -29 8 -13 5 -28 -12 -61 l-22 -43 -19 43 c-21 47
-24 70 -8 70 5 0 7 5 4 10 -8 13 -115 13 -115 1z"/>
<path d="M3752 4118 c-32 -35 -62 -115 -62 -166 0 -54 27 -115 52 -120 16 -3
16 -1 3 32 -28 67 -11 180 37 249 25 34 2 38 -30 5z"/>
<path d="M5254 4126 c-11 -9 -13 -15 -6 -20 11 -7 9 -40 -10 -139 -10 -51 -9
-60 7 -77 26 -29 59 -25 94 11 25 24 31 39 31 73 0 62 -30 84 -65 49 -16 -16
-17 -13 -10 44 7 66 -5 84 -41 59z m76 -165 c0 -42 -18 -65 -44 -55 -20 8 -20
27 -1 64 23 44 45 39 45 -9z"/>
<path d="M7566 4068 c-19 -40 -52 -110 -74 -155 -38 -77 -42 -102 -15 -85 11
7 136 255 148 293 5 13 2 19 -10 19 -10 0 -28 -27 -49 -72z"/>
<path d="M8253 4125 c-32 -22 -57 -92 -54 -151 3 -51 -14 -127 -32 -151 -7 -9
-5 -13 6 -13 25 0 49 49 60 123 8 53 15 71 29 75 22 5 24 32 3 32 -19 0 -19
29 0 54 12 16 17 17 30 6 21 -17 51 6 34 26 -15 18 -49 18 -76 -1z"/>
<path d="M10197 4108 c22 -88 2 -208 -45 -260 -13 -16 -13 -18 0 -18 18 0 50
34 74 80 25 48 26 165 1 203 -25 38 -41 35 -30 -5z"/>
<path d="M4757 4123 c-4 -3 -2 -12 4 -19 20 -24 2 -59 -36 -73 -61 -22 -94
-100 -61 -143 16 -22 34 -22 60 -3 17 13 21 13 31 -2 7 -10 19 -14 29 -10 14
5 14 10 4 26 -9 15 -8 40 4 117 9 54 14 102 12 106 -6 10 -38 11 -47 1z m-7
-141 c0 -32 -25 -72 -46 -72 -18 0 -19 52 -2 80 19 31 48 26 48 -8z"/>
<path d="M6060 4090 c0 -27 27 -37 47 -17 20 19 9 37 -23 37 -17 0 -24 -5 -24
-20z"/>
<path d="M6820 4090 c0 -27 27 -37 47 -17 20 19 9 37 -23 37 -17 0 -24 -5 -24
-20z"/>
<path d="M3830 4092 c-12 -2 -15 -22 -17 -95 -2 -70 -6 -95 -18 -103 -14 -10
-14 -12 1 -18 25 -9 81 -7 106 5 37 17 61 59 66 113 5 67 -11 87 -74 95 -27 4
-56 5 -64 3z m91 -43 c26 -50 -9 -149 -53 -149 -20 0 -24 36 -12 124 6 40 10
46 30 46 14 0 28 -9 35 -21z"/>
<path d="M9092 4088 c-5 -7 -22 -40 -37 -73 -14 -33 -35 -77 -45 -97 l-19 -38
32 0 c23 0 28 3 18 9 -12 8 -12 13 3 35 9 14 25 26 36 26 22 0 43 -32 34 -53
-7 -19 11 -30 36 -22 15 5 17 11 11 28 -4 12 -13 56 -20 97 -16 93 -18 100
-29 100 -5 0 -14 -6 -20 -12z m12 -85 c7 -16 -11 -36 -25 -27 -9 5 1 44 11 44
4 0 11 -8 14 -17z"/>
<path d="M5608 4078 c5 -7 12 -48 14 -91 3 -69 6 -81 28 -98 38 -28 86 -25
121 10 26 27 29 36 29 98 0 40 5 74 12 81 9 9 2 12 -32 12 -34 0 -41 -3 -32
-12 14 -14 16 -136 3 -156 -5 -8 -21 -12 -37 -10 -29 3 -29 4 -32 76 -2 46 2
79 9 88 10 12 3 14 -41 14 -41 0 -50 -3 -42 -12z"/>
<path d="M6933 4078 c-18 -25 -33 -68 -23 -68 6 0 10 -23 10 -51 0 -82 20
-102 75 -77 27 12 36 42 9 31 -21 -8 -34 13 -34 55 0 22 5 34 18 38 9 3 24 9
33 14 14 7 23 -4 50 -67 37 -84 34 -102 -20 -116 -23 -5 -31 -13 -29 -25 5
-27 50 -27 75 0 19 20 103 200 103 221 0 4 -11 7 -25 7 -21 0 -25 -5 -25 -27
-1 -64 -40 -68 -42 -5 l-1 31 -66 3 c-60 3 -66 5 -69 26 -4 24 -24 29 -39 10z"/>
<path d="M7868 4074 c-16 -8 -28 -21 -28 -29 0 -19 9 -19 32 2 14 13 21 14 30
5 9 -9 7 -19 -10 -41 -19 -27 -20 -31 -6 -39 10 -6 14 -19 12 -38 -3 -27 -6
-29 -40 -28 -40 1 -46 -4 -26 -24 34 -34 108 8 108 62 0 17 -5 37 -12 44 -7 7
-8 15 -1 24 19 25 22 48 7 63 -19 19 -31 18 -66 -1z"/>
<path d="M8389 4076 c8 -10 9 -26 2 -57 -23 -98 -3 -149 58 -149 47 0 76 39
91 122 7 40 18 79 23 86 7 9 2 12 -19 12 -29 0 -29 -1 -32 -66 -3 -86 -23
-126 -60 -122 -27 3 -27 3 -25 81 1 43 7 85 14 93 10 12 5 14 -26 14 -31 0
-35 -2 -26 -14z"/>
<path d="M8625 4068 c-54 -42 -71 -125 -34 -172 39 -50 119 -26 138 42 11 39
-2 49 -47 36 -20 -5 -23 -8 -9 -11 29 -7 18 -63 -13 -63 -47 0 -66 71 -35 130
18 34 58 48 81 30 10 -9 18 -10 26 -2 35 35 -63 45 -107 10z"/>
<path d="M8819 4073 c-39 -24 -59 -65 -59 -120 0 -36 5 -55 18 -66 32 -29 112
-16 112 19 0 12 -4 13 -21 4 -29 -16 -65 -5 -73 22 -9 38 5 95 30 119 21 19
27 21 49 11 34 -16 35 -15 35 8 0 16 -7 20 -32 20 -18 0 -45 -8 -59 -17z"/>
<path d="M9640 4074 c-33 -15 -34 -17 -14 -24 19 -7 21 -15 17 -57 -7 -77 -12
-91 -33 -98 -31 -10 -13 -25 28 -25 46 0 72 14 46 24 -17 7 -17 37 3 159 6 41
3 43 -47 21z"/>
<path d="M9764 4065 c-20 -20 -25 -34 -22 -63 3 -32 7 -38 36 -47 38 -11 37
-22 -7 -52 -38 -26 -24 -40 18 -19 46 24 74 72 75 126 1 26 -5 54 -13 63 -20
25 -58 21 -87 -8z m62 -20 c10 -26 -5 -65 -25 -65 -24 0 -33 23 -21 55 11 28
37 33 46 10z"/>
<path d="M9922 4082 c-12 -8 -32 -64 -32 -91 0 -9 7 -11 22 -8 28 8 48 -9 48
-38 0 -32 -23 -48 -60 -40 -31 7 -39 -2 -18 -23 38 -38 112 11 112 74 0 38
-15 54 -51 54 -14 0 -23 6 -23 15 0 16 5 19 53 29 39 9 35 36 -5 36 -18 0 -39
-4 -46 -8z"/>
<path d="M10075 4057 c-44 -44 -64 -110 -44 -145 22 -39 43 -48 73 -33 56 31
59 123 3 129 -15 2 -27 7 -27 12 0 8 28 32 66 57 17 11 16 12 -9 12 -20 1 -40
-10 -62 -32z m31 -132 c-9 -36 -40 -30 -44 10 -5 39 28 67 42 36 5 -11 6 -32
2 -46z"/>
<path d="M9364 4055 c-11 -17 -18 -53 -21 -101 -4 -82 6 -97 53 -76 29 14 32
32 4 32 -15 0 -20 7 -20 24 0 37 18 76 35 76 8 0 15 5 15 10 0 6 -7 10 -15 10
-8 0 -15 9 -15 19 0 31 -18 34 -36 6z"/>
<path d="M4918 4040 c-9 -16 -13 -32 -9 -34 4 -3 3 -28 -2 -55 -8 -38 -8 -53
2 -65 16 -19 42 -21 59 -4 18 18 15 28 -9 28 -19 0 -20 4 -14 43 9 51 12 57
31 57 19 0 18 16 -2 24 -9 4 -14 13 -10 21 11 28 -29 16 -46 -15z"/>
<path d="M5064 4030 c-55 -21 -84 -109 -46 -143 34 -31 81 -16 107 33 34 66
-2 131 -61 110z m34 -66 c3 -44 -16 -71 -43 -60 -19 7 -21 76 -3 94 23 23 43
9 46 -34z"/>
<path d="M5842 4024 c-10 -8 -12 -13 -4 -14 15 0 17 -101 1 -117 -15 -15 10
-21 103 -21 72 -1 102 8 78 23 -5 3 -10 32 -10 64 0 35 -5 63 -12 69 -18 14
-135 11 -156 -4z m116 -70 c4 -52 -22 -80 -44 -49 -28 38 -11 100 26 93 10 -2
16 -17 18 -44z"/>
<path d="M6054 4025 c-11 -8 -14 -15 -6 -15 16 0 17 -101 0 -118 -15 -15 9
-25 49 -20 19 2 27 8 23 18 -2 8 -6 45 -8 83 -4 72 -16 84 -58 52z"/>
<path d="M6140 4025 c0 -8 3 -15 8 -15 4 0 15 -21 26 -48 41 -102 61 -111 91
-39 9 23 23 54 31 69 20 37 17 48 -11 48 -21 0 -25 -5 -25 -28 0 -16 -6 -36
-13 -46 -12 -16 -14 -16 -25 9 -7 15 -10 36 -7 46 6 17 1 19 -34 19 -30 0 -41
-4 -41 -15z"/>
<path d="M6352 4017 c-27 -29 -29 -86 -4 -115 26 -32 62 -36 100 -12 39 24 34
43 -7 27 -23 -8 -33 -8 -45 2 -23 19 -20 31 8 31 40 0 76 18 76 38 0 51 -89
71 -128 29z m72 -22 c4 -11 -1 -15 -19 -15 -16 0 -25 6 -25 15 0 8 9 15 19 15
10 0 21 -7 25 -15z"/>
<path d="M6503 4025 c-11 -9 -13 -14 -5 -19 16 -9 15 -99 0 -114 -9 -9 0 -12
42 -12 51 0 52 1 37 18 -22 24 -22 76 -1 93 14 11 18 10 30 -6 13 -17 16 -18
24 -5 6 8 9 24 8 35 -3 17 -11 20 -61 21 -32 0 -65 -5 -74 -11z"/>
<path d="M6676 4021 c-23 -26 -14 -51 29 -79 20 -12 33 -27 30 -32 -9 -15 -24
-12 -42 10 -25 29 -35 25 -31 -12 3 -30 6 -33 41 -36 77 -6 106 62 42 99 -19
12 -35 25 -35 30 0 12 27 11 35 -1 12 -20 36 -11 33 13 -4 31 -76 37 -102 8z"/>
<path d="M6815 4027 c-12 -10 -14 -16 -7 -21 16 -9 15 -99 0 -114 -15 -15 9
-25 48 -20 27 3 28 4 25 68 -1 36 -4 73 -7 83 -6 20 -33 22 -59 4z"/>
<path d="M7319 4038 c-5 -20 -3 -128 3 -145 9 -27 34 -30 60 -6 10 9 18 11 18
6 0 -17 30 -24 51 -13 23 13 25 30 3 30 -14 0 -15 9 -9 66 7 65 6 66 -17 62
-19 -2 -23 -8 -20 -35 4 -37 -24 -96 -41 -90 -12 4 -13 13 -6 82 4 35 1 40
-18 43 -13 2 -23 2 -24 0z"/>
<path d="M7650 4020 c-28 -28 -25 -45 10 -70 47 -34 35 -77 -14 -45 -20 13
-24 14 -29 2 -12 -32 31 -47 77 -26 43 20 43 66 0 89 -31 17 -33 44 -1 37 12
-4 28 -2 36 2 11 7 9 11 -7 20 -30 16 -49 14 -72 -9z"/>
<path d="M8090 4027 c-14 -7 -34 -29 -45 -49 -19 -35 -19 -38 -2 -72 14 -29
22 -36 46 -36 65 0 110 119 59 154 -27 19 -26 19 -58 3z m42 -39 c5 -38 -4
-79 -18 -85 -21 -8 -44 16 -44 43 0 54 55 90 62 42z"/>
<path d="M9246 4025 c-16 -9 -35 -23 -42 -33 -17 -21 -18 -94 -2 -110 19 -19
63 -14 84 9 l19 21 -38 -7 -37 -7 0 45 c0 55 20 78 52 58 28 -17 47 7 21 27
-21 15 -22 15 -57 -3z"/>
<path d="M4011 4006 c-26 -28 -37 -85 -22 -115 13 -24 56 -28 84 -7 25 20 21
28 -12 21 -35 -8 -54 13 -26 29 10 6 32 23 49 37 26 23 28 29 17 43 -20 23
-64 20 -90 -8z m59 -9 c0 -14 -20 -37 -32 -37 -12 0 -10 24 4 38 16 16 28 15
28 -1z"/>
<path d="M4145 3999 c-20 -25 -25 -40 -23 -72 4 -55 30 -72 76 -50 42 21 41
36 -3 27 -30 -5 -35 -3 -35 12 0 11 14 26 32 35 59 29 65 79 9 79 -21 0 -37
-9 -56 -31z m60 -9 c0 -15 -31 -37 -40 -28 -9 9 18 49 30 45 5 -2 10 -10 10
-17z"/>
<path d="M4267 4023 c-4 -3 -3 -11 3 -17 5 -7 6 -36 1 -71 -5 -33 -7 -62 -6
-63 2 -2 13 -1 24 3 16 5 21 15 21 41 0 39 25 84 47 84 11 0 13 -7 7 -32 -13
-55 -11 -93 6 -93 10 0 16 12 18 33 4 39 32 95 47 93 10 -2 10 -8 4 -86 -3
-33 -1 -40 15 -40 15 0 18 11 22 73 4 61 3 73 -12 79 -9 3 -25 1 -35 -6 -15
-8 -24 -8 -39 1 -16 10 -24 10 -41 0 -15 -10 -24 -11 -32 -3 -12 12 -40 15
-50 4z"/>
<path d="M4551 4009 c-70 -65 -36 -172 42 -133 36 19 35 35 -3 28 -25 -5 -30
-3 -30 12 0 11 14 25 32 35 38 18 53 40 45 63 -9 23 -59 20 -86 -5z m49 -12
c0 -14 -20 -37 -32 -37 -12 0 -10 24 4 38 16 16 28 15 28 -1z"/>
<path d="M5422 4007 c-32 -33 -46 -81 -33 -106 19 -34 43 -41 79 -24 42 21 41
36 -3 27 -30 -5 -35 -3 -35 12 0 11 14 26 32 35 38 18 53 40 45 63 -9 24 -60
20 -85 -7z m52 -6 c7 -10 -32 -47 -40 -38 -7 7 14 47 26 47 5 0 11 -4 14 -9z"/>
<path d="M9452 3912 c-7 -5 -10 -16 -7 -25 4 -8 2 -25 -5 -36 -9 -17 -8 -21 4
-21 19 0 50 56 42 76 -6 16 -15 17 -34 6z"/>
<path d="M6945 140 c-3 -5 1 -10 9 -10 9 0 16 5 16 10 0 6 -4 10 -9 10 -6 0
-13 -4 -16 -10z"/>
<path d="M4185 130 l-90 -6 98 -2 c63 -1 96 2 92 8 -3 6 -7 9 -8 8 -1 -1 -42
-5 -92 -8z"/>
<path d="M4650 130 c20 -13 90 -13 90 0 0 6 -24 10 -52 10 -38 0 -49 -3 -38
-10z"/>
<path d="M6848 133 c7 -3 16 -2 19 1 4 3 -2 6 -13 5 -11 0 -14 -3 -6 -6z"/>
<path d="M7158 133 c6 -2 18 -2 25 0 6 3 1 5 -13 5 -14 0 -19 -2 -12 -5z"/>
<path d="M7360 130 c25 -4 68 -4 95 0 42 6 34 8 -45 8 -74 -1 -85 -2 -50 -8z"/>
<path d="M7633 133 c26 -2 68 -2 95 0 26 2 4 3 -48 3 -52 0 -74 -1 -47 -3z"/>
<path d="M7898 133 c23 -2 61 -2 85 0 23 2 4 4 -43 4 -47 0 -66 -2 -42 -4z"/>
<path d="M9725 130 c8 -13 35 -13 55 0 11 7 5 10 -23 10 -23 0 -36 -4 -32 -10z"/>
<path d="M9968 133 c7 -3 16 -2 19 1 4 3 -2 6 -13 5 -11 0 -14 -3 -6 -6z"/>
<path d="M10193 133 c9 -2 25 -2 35 0 9 3 1 5 -18 5 -19 0 -27 -2 -17 -5z"/>
<path d="M10260 129 c0 -5 19 -9 42 -9 49 0 47 5 -4 13 -21 3 -38 2 -38 -4z"/>
<path d="M10455 129 c11 -4 52 -8 90 -8 89 1 74 6 -30 12 -44 2 -71 1 -60 -4z"/>
<path d="M1698 123 c17 -2 47 -2 65 0 17 2 3 4 -33 4 -36 0 -50 -2 -32 -4z"/>
<path d="M1908 123 c7 -3 16 -2 19 1 4 3 -2 6 -13 5 -11 0 -14 -3 -6 -6z"/>
<path d="M1973 123 c15 -2 39 -2 55 0 15 2 2 4 -28 4 -30 0 -43 -2 -27 -4z"/>
<path d="M2188 123 c7 -3 16 -2 19 1 4 3 -2 6 -13 5 -11 0 -14 -3 -6 -6z"/>
<path d="M2258 123 c23 -2 59 -2 80 0 20 2 1 4 -43 4 -44 0 -61 -2 -37 -4z"/>
<path d="M2527 121 c39 -3 147 -4 240 -1 161 6 158 6 -72 6 -132 1 -208 -2
-168 -5z"/>
<path d="M3060 121 c41 -3 152 -3 245 0 163 5 159 5 -75 6 -135 0 -211 -3
-170 -6z"/>
<path d="M3658 123 c67 -2 177 -2 245 0 67 1 12 3 -123 3 -135 0 -190 -2 -122
-3z"/>
<path d="M4388 123 c7 -3 16 -2 19 1 4 3 -2 6 -13 5 -11 0 -14 -3 -6 -6z"/>
<path d="M10748 123 c12 -2 30 -2 40 0 9 3 -1 5 -23 4 -22 0 -30 -2 -17 -4z"/>
<path d="M298 113 c23 -2 59 -2 80 0 20 2 1 4 -43 4 -44 0 -61 -2 -37 -4z"/>
<path d="M386 35 c-15 -8 -32 -13 -36 -10 -5 3 -11 1 -14 -4 -9 -15 87 -19
102 -4 14 14 8 33 -11 33 -7 0 -25 -7 -41 -15z"/>
<path d="M2436 43 c-1 -1 -84 -3 -185 -3 -172 -1 -227 -7 -130 -14 24 -2 62
-7 83 -11 31 -6 37 -5 31 5 -6 10 -4 11 6 4 8 -5 461 -7 1098 -5 911 3 1085 1
1092 -10 5 -8 9 -9 9 -3 0 9 155 12 578 14 756 2 772 2 772 12 0 4 -134 9
-297 10 -426 3 -3054 3 -3057 1z"/>
<path d="M5800 31 c0 -6 43 -9 100 -9 54 1 97 5 94 10 -7 11 -194 10 -194 -1z"/>
<path d="M6010 30 c0 -11 284 -10 302 2 7 4 -58 8 -144 8 -95 0 -158 -4 -158
-10z"/>
<path d="M6330 28 c0 -5 98 -9 218 -9 119 -1 289 -4 377 -7 88 -2 996 -5 2017
-6 1649 -1 1858 1 1858 14 0 13 -251 15 -2235 15 -1229 0 -2235 -3 -2235 -7z"/>
<path d="M40 10 c0 -5 5 -10 10 -10 6 0 10 5 10 10 0 6 -4 10 -10 10 -5 0 -10
-4 -10 -10z"/>
</g>
</svg>
