<?xml version="1.0" standalone="no"?>
<!DOCTYPE svg PUBLIC "-//W3C//DTD SVG 20010904//EN"
 "http://www.w3.org/TR/2001/REC-SVG-20010904/DTD/svg10.dtd">
<svg version="1.0" xmlns="http://www.w3.org/2000/svg"
 width="288.000000pt" height="288.000000pt" viewBox="0 0 288.000000 288.000000"
 preserveAspectRatio="xMidYMid meet">
<metadata>
Created by potrace 1.14, written by Peter Selinger 2001-2017
</metadata>
<g transform="translate(0.000000,288.000000) scale(0.100000,-0.100000)"
fill="#000000" stroke="none">
<path d="M315 1981 c-82 -24 -113 -42 -179 -101 -177 -162 -174 -432 6 -595
88 -79 192 -116 316 -110 112 4 198 37 276 106 152 134 182 350 74 522 -99
156 -310 232 -493 178z"/>
<path d="M1124 1950 c-137 -31 -185 -183 -88 -274 16 -14 71 -42 121 -62 109
-42 143 -74 143 -133 0 -73 -60 -113 -145 -97 -48 9 -103 60 -131 121 -24 51
-45 64 -54 33 -3 -10 -4 -56 -2 -103 3 -75 6 -85 22 -85 11 0 23 6 27 14 7 13
16 12 63 -4 157 -55 310 24 310 159 0 84 -45 130 -174 180 -99 38 -124 55
-140 93 -38 89 61 157 155 106 39 -22 55 -43 79 -107 17 -44 49 -65 51 -33 3
48 -2 175 -7 183 -3 6 -15 4 -29 -5 -20 -13 -28 -14 -57 -2 -44 18 -105 25
-144 16z"/>
<path d="M1484 1941 c-13 -13 0 -30 26 -36 17 -4 35 -15 40 -25 6 -11 10 -114
10 -244 0 -213 -1 -226 -19 -236 -11 -5 -29 -10 -40 -10 -14 0 -21 -6 -21 -20
0 -18 8 -19 129 -19 117 -1 129 1 127 17 -2 11 -14 18 -35 20 -42 4 -50 28
-50 147 l0 95 33 0 c30 0 39 -10 136 -140 l103 -141 71 3 c82 3 95 21 33 43
-42 14 -73 47 -163 173 l-62 86 49 22 c59 28 89 72 89 131 0 51 -42 106 -96
123 -32 11 -350 20 -360 11z m306 -51 c41 -22 58 -92 36 -145 -20 -46 -69 -75
-129 -75 l-48 0 2 113 c0 61 3 115 5 118 6 10 112 1 134 -11z"/>
<path d="M2112 1940 c-14 -10 -12 -30 3 -30 29 0 64 -23 73 -49 5 -15 9 -118
8 -230 -1 -200 -1 -203 -25 -222 -13 -10 -34 -19 -47 -19 -17 0 -24 -6 -24
-20 0 -20 5 -21 120 -19 108 1 120 3 120 19 0 12 -11 20 -36 24 -58 11 -65 41
-62 274 l3 197 94 -242 c52 -134 100 -243 107 -243 6 0 56 107 110 237 l99
238 3 -218 c3 -240 1 -247 -57 -247 -24 0 -31 -4 -31 -20 0 -20 6 -21 130 -19
121 1 130 2 130 20 0 13 -7 19 -23 19 -51 0 -55 16 -53 260 0 124 4 230 9 237
4 6 21 14 37 18 19 4 30 13 30 23 0 15 -12 17 -89 16 -92 -1 -111 -6 -111 -29
0 -11 -147 -395 -154 -402 -1 -2 -38 91 -81 205 -43 114 -82 211 -85 215 -8 9
-188 15 -198 7z"/>
<path d="M964 1253 c1 -43 23 -43 23 0 0 19 -5 34 -12 34 -6 0 -11 -15 -11
-34z"/>
<path d="M1000 1255 c0 -19 4 -35 9 -35 5 0 7 10 4 23 -6 21 -6 21 15 -3 12
-14 22 -20 22 -15 1 6 3 24 5 40 4 28 3 29 -10 11 -13 -17 -15 -17 -21 -3 -11
29 -24 19 -24 -18z"/>
<path d="M1070 1275 c-5 -6 -1 -19 10 -32 23 -29 30 -29 30 2 0 14 5 25 10 25
6 0 10 -11 10 -25 0 -14 5 -25 10 -25 6 0 10 15 10 33 0 22 3 28 9 18 7 -11
10 -11 15 0 3 8 5 -1 3 -18 -3 -23 1 -33 10 -33 9 0 12 8 9 25 -4 19 0 25 14
25 14 0 18 -6 14 -25 -3 -16 0 -25 9 -25 9 0 12 10 9 33 l-4 33 -79 0 c-44 0
-84 -5 -89 -11z m25 -5 c3 -5 1 -10 -4 -10 -6 0 -11 5 -11 10 0 6 2 10 4 10 3
0 8 -4 11 -10z"/>
<path d="M1272 1258 c2 -25 8 -33 23 -33 15 0 20 7 21 30 1 30 1 30 -3 2 -5
-36 -29 -30 -26 6 1 15 -3 27 -8 27 -6 0 -9 -15 -7 -32z"/>
<path d="M1330 1272 c0 -7 5 -10 11 -6 8 5 10 -1 7 -20 -3 -16 -1 -26 7 -26 8
0 10 9 7 25 -2 15 0 25 7 25 6 0 11 4 11 8 0 4 -11 8 -25 8 -14 0 -25 -6 -25
-14z"/>
<path d="M1390 1258 c0 -21 5 -38 10 -38 6 0 10 7 10 16 0 8 5 12 10 9 6 -4 8
-11 5 -16 -4 -5 -2 -9 3 -9 14 0 7 63 -7 68 -7 2 -9 -3 -5 -15 6 -16 5 -16 -9
2 -16 19 -16 19 -17 -17z"/>
<path d="M1472 1273 c-15 -31 -8 -48 20 -51 34 -4 50 34 22 55 -24 17 -32 16
-42 -4z m38 -24 c0 -10 -7 -19 -15 -19 -16 0 -19 9 -9 34 8 20 24 11 24 -15z"/>
<path d="M1535 1255 c0 -21 5 -35 12 -35 7 0 10 7 6 17 -4 10 -2 14 5 9 11 -7
28 31 18 41 -3 4 -6 -1 -6 -10 0 -9 -4 -17 -10 -17 -5 0 -7 7 -4 15 4 9 1 15
-7 15 -9 0 -14 -12 -14 -35z"/>
<path d="M1609 1280 c-8 -5 -4 -15 11 -30 23 -23 23 -23 2 -18 -12 4 -22 2
-22 -2 0 -4 32 -8 70 -7 l70 0 0 34 c0 22 -4 32 -11 27 -6 -3 -9 -17 -6 -29 3
-19 0 -23 -17 -22 -27 1 -37 16 -25 39 7 14 6 16 -5 12 -8 -3 -17 -15 -19 -27
-4 -19 -4 -18 -6 4 -1 25 -18 33 -42 19z"/>
<path d="M1701 1274 c0 -11 3 -14 6 -6 3 7 2 16 -1 19 -3 4 -6 -2 -5 -13z"/>
<path d="M1755 1253 c0 -20 5 -33 13 -33 6 0 12 7 12 16 0 8 5 12 10 9 6 -4 8
-11 5 -16 -4 -5 3 -9 15 -9 17 0 20 4 15 23 l-6 22 17 -22 c17 -24 36 -31 32
-12 -4 17 -42 58 -49 53 -4 -2 -6 -15 -4 -29 2 -19 -1 -23 -10 -15 -7 6 -12
18 -10 28 1 9 0 11 -2 5 -3 -7 -8 -13 -13 -13 -5 0 -7 6 -4 13 3 8 -1 14 -8
14 -8 0 -13 -13 -13 -34z"/>
<path d="M1850 1284 c0 -16 54 -73 64 -67 6 4 19 6 29 5 10 -2 17 3 17 13 0 9
5 13 10 10 6 -4 8 -11 5 -16 -4 -5 -2 -9 3 -9 5 0 9 13 8 29 -1 19 -5 26 -10
20 -15 -14 -30 -11 -17 5 9 11 4 13 -30 11 -23 -1 -45 -9 -50 -16 -7 -11 -9
-10 -9 4 0 9 -4 17 -10 17 -5 0 -10 -3 -10 -6z m83 -12 c3 7 6 1 6 -13 1 -18
-4 -26 -16 -26 -22 0 -33 15 -26 34 4 10 9 11 18 3 9 -8 14 -7 18 2z"/>
<path d="M2078 1255 c2 -19 8 -35 12 -35 5 0 6 10 3 23 -6 21 -6 21 15 -3 l21
-25 1 27 c0 15 5 30 11 34 8 5 10 -3 7 -25 -4 -27 -2 -31 18 -31 35 0 57 47
26 58 -7 2 -11 -4 -10 -19 2 -12 -2 -24 -8 -26 -7 -2 -10 7 -8 25 3 24 0 28
-21 28 -15 0 -25 -6 -25 -15 0 -12 -3 -11 -18 2 -26 24 -29 22 -24 -18z"/>
<path d="M2230 1278 c0 -4 5 -8 11 -8 7 0 9 -10 7 -25 -4 -16 -1 -25 8 -25 8
0 11 9 8 25 -2 14 0 25 6 25 5 0 10 4 10 8 0 4 -11 8 -25 8 -14 0 -25 -4 -25
-8z"/>
<path d="M2290 1254 l0 -33 70 1 70 1 0 32 c0 30 -2 32 -36 30 -33 -1 -58 -20
-48 -36 2 -4 -3 -10 -12 -13 -21 -8 -24 -8 -24 5 0 5 5 7 10 4 6 -3 10 1 10 9
0 9 0 19 0 24 0 4 -9 8 -20 8 -16 1 -20 -5 -20 -32z m40 22 c0 -3 -4 -8 -10
-11 -5 -3 -10 -1 -10 4 0 6 5 11 10 11 6 0 10 -2 10 -4z m73 -4 c3 7 6 2 6
-12 1 -20 -4 -26 -23 -28 -19 -1 -23 3 -21 21 3 31 3 31 19 18 11 -9 15 -9 19
1z"/>
<path d="M2443 1253 c1 -19 7 -33 13 -33 8 0 11 11 7 32 l-5 32 34 -32 33 -33
7 33 c8 40 2 50 -10 17 -9 -23 -9 -23 -16 -3 -5 16 -14 21 -35 20 -25 -1 -28
-4 -28 -33z"/>
<path d="M2552 1277 c-14 -16 -10 -46 8 -57 29 -18 59 30 34 54 -19 19 -28 20
-42 3z m31 -39 c-2 -5 -8 -8 -14 -8 -11 0 -12 33 -2 44 8 8 23 -25 16 -36z"/>
<path d="M2614 1254 c1 -33 1 -33 53 -33 32 0 53 5 53 11 0 6 8 4 18 -5 12
-11 22 -13 35 -6 21 12 22 29 1 29 -8 0 -12 -4 -9 -10 3 -5 1 -10 -4 -10 -12
0 -15 33 -4 43 3 4 12 2 20 -4 10 -9 13 -8 13 2 0 8 5 5 14 -6 8 -11 12 -25 9
-32 -3 -7 1 -13 9 -13 7 0 14 8 14 18 1 9 5 26 9 37 l8 20 -16 -20 c-15 -18
-16 -18 -17 -2 0 14 -7 16 -36 13 -20 -3 -41 -9 -47 -15 -7 -7 -14 -5 -22 6
-10 13 -16 13 -34 3 -12 -6 -20 -18 -17 -25 2 -7 -2 -16 -10 -19 -24 -9 -25
-8 -21 22 3 18 0 29 -7 29 -8 0 -12 -13 -12 -33z m96 -11 c0 -7 -6 -13 -14
-13 -11 0 -15 24 -7 50 2 9 21 -24 21 -37z"/>
<path d="M2023 1250 c-6 -16 -7 -30 -2 -30 5 0 9 5 9 11 0 8 5 7 15 -1 21 -18
27 -8 16 24 -14 34 -24 33 -38 -4z"/>
<path d="M1060 1230 c0 -5 5 -10 11 -10 5 0 7 5 4 10 -3 6 -8 10 -11 10 -2 0
-4 -4 -4 -10z"/>
<path d="M2480 1230 c0 -5 5 -10 11 -10 5 0 7 5 4 10 -3 6 -8 10 -11 10 -2 0
-4 -4 -4 -10z"/>
<path d="M962 1148 c-7 -7 -11 -23 -11 -37 1 -21 2 -22 6 -6 3 11 10 26 16 33
13 17 4 25 -11 10z"/>
<path d="M983 1130 c-9 -25 -9 -30 3 -30 8 0 14 9 14 19 0 11 5 23 11 27 8 5
10 -1 6 -18 -6 -24 -6 -24 66 -25 42 0 75 4 79 11 6 8 8 7 8 -1 0 -19 17 -15
22 5 4 15 -2 18 -43 20 -31 1 -51 -4 -59 -13 -7 -8 -18 -15 -24 -15 -6 0 -4 4
4 10 8 5 11 13 6 17 -4 4 -14 0 -21 -10 -13 -18 -14 -17 -17 5 -5 36 -41 36
-55 -2z m147 -10 c0 -5 -8 -10 -17 -10 -15 0 -16 2 -3 10 19 12 20 12 20 0z"/>
<path d="M1268 1149 c-2 -7 -17 -13 -33 -13 -32 -2 -51 -36 -20 -36 9 0 13 5
10 10 -3 6 -1 10 4 10 6 0 11 -4 11 -10 0 -5 8 -10 19 -10 16 0 30 24 31 53 0
11 -18 8 -22 -4z"/>
<path d="M1416 1144 c-10 -26 -7 -44 8 -44 17 0 31 33 17 38 -6 2 -9 8 -5 13
3 5 1 9 -4 9 -6 0 -13 -7 -16 -16z"/>
<path d="M1524 1138 c3 -13 6 -27 6 -31 0 -17 45 -2 46 16 1 12 1 13 -3 2 -2
-8 -11 -15 -20 -15 -11 0 -14 7 -11 25 4 18 1 25 -10 25 -10 0 -13 -7 -8 -22z"/>
<path d="M1640 1130 c0 -16 5 -30 10 -30 6 0 9 14 8 30 -1 17 -6 30 -10 30 -4
0 -8 -13 -8 -30z"/>
<path d="M1838 1154 c-5 -4 -8 -18 -8 -31 0 -18 5 -23 25 -23 17 0 23 4 19 14
-3 8 -1 17 5 20 5 4 13 -3 16 -15 5 -14 2 -25 -6 -30 -8 -5 -9 -9 -3 -9 11 0
34 20 34 31 0 13 -31 39 -46 39 -8 0 -15 -10 -15 -22 -1 -19 -2 -18 -8 5 -3
16 -9 25 -13 21z"/>
<path d="M2018 1133 c-12 -19 -18 -23 -18 -11 0 21 -34 17 -38 -5 -5 -26 43
-22 64 6 16 21 16 21 12 1 -4 -13 0 -21 9 -21 8 0 12 6 9 13 -3 7 0 15 7 18 7
2 4 5 -6 5 -10 1 -15 6 -12 11 3 6 2 10 -2 10 -5 0 -16 -12 -25 -27z"/>
<path d="M2114 1138 c1 -13 -6 -26 -14 -30 -12 -5 -12 -7 3 -7 17 -1 39 36 30
52 -9 15 -20 6 -19 -15z"/>
<path d="M2219 1128 c-7 -18 -18 -36 -23 -40 -7 -5 -5 -8 4 -8 8 0 21 15 29
33 8 17 19 35 25 39 7 5 5 8 -5 8 -9 0 -22 -14 -30 -32z"/>
<path d="M2276 1134 c-6 -24 -2 -44 8 -33 9 11 15 59 7 59 -5 0 -12 -12 -15
-26z"/>
<path d="M2320 1149 c0 -5 5 -7 10 -4 6 3 10 8 10 11 0 2 -4 4 -10 4 -5 0 -10
-5 -10 -11z"/>
<path d="M2343 1141 c-10 -15 -9 -22 2 -31 13 -10 15 -8 15 15 0 22 4 26 20
22 11 -3 20 -1 20 4 0 17 -45 9 -57 -10z"/>
<path d="M2416 1145 c-8 -8 -22 -15 -30 -15 -9 0 -16 -7 -16 -15 0 -8 5 -15
10 -15 6 0 10 5 10 12 0 9 3 9 12 0 7 -7 21 -11 33 -11 16 1 17 2 3 6 -20 5
-22 12 -10 31 5 8 16 10 27 6 13 -5 16 -4 11 4 -10 16 -32 15 -50 -3z"/>
<path d="M2673 1130 c-9 -25 -9 -30 3 -30 8 0 14 6 14 14 0 8 3 21 6 30 3 9 2
16 -3 16 -5 0 -14 -13 -20 -30z"/>
<path d="M2716 1148 c-6 -19 -4 -48 4 -48 12 0 30 24 30 42 0 20 -29 25 -34 6z"/>
<path d="M2766 1145 c-3 -8 -1 -15 4 -15 14 0 12 -18 -2 -23 -8 -2 -7 -3 2 -3
8 1 15 10 15 21 0 11 5 23 10 27 6 5 3 8 -6 8 -9 0 -19 -7 -23 -15z"/>
<path d="M2815 1144 c-18 -19 -15 -39 6 -39 8 0 14 11 15 28 1 32 0 32 -21 11z"/>
<path d="M1325 1142 c-13 -9 -18 -42 -7 -42 5 0 12 10 15 22 7 26 5 30 -8 20z"/>
<path d="M2500 1125 c-13 -14 -19 -25 -13 -25 6 0 14 6 16 13 4 10 6 10 6 0 2
-23 19 -14 23 12 3 14 2 25 -2 25 -3 0 -17 -11 -30 -25z"/>
<path d="M2578 1143 c-16 -2 -28 -9 -28 -14 0 -5 -1 -12 -1 -16 -3 -11 71 -22
77 -11 3 4 -1 8 -9 8 -10 0 -13 7 -10 20 3 11 4 19 2 19 -2 -1 -16 -4 -31 -6z
m12 -23 c0 -5 -7 -10 -15 -10 -8 0 -15 5 -15 10 0 6 7 10 15 10 8 0 15 -4 15
-10z"/>
<path d="M1343 1125 c-3 -9 -3 -18 0 -22 10 -10 37 6 37 22 0 20 -29 20 -37 0z"/>
<path d="M1462 1128 c-18 -18 -14 -28 11 -28 18 0 19 2 7 10 -10 6 -11 10 -2
10 6 0 12 5 12 10 0 14 -13 13 -28 -2z"/>
<path d="M1590 1120 c0 -13 7 -20 20 -20 13 0 20 7 20 20 0 13 -7 20 -20 20
-13 0 -20 -7 -20 -20z"/>
<path d="M1670 1133 c1 -18 18 -35 24 -24 4 6 4 16 1 21 -7 12 -25 13 -25 3z"/>
<path d="M1715 1130 c-7 -12 2 -30 16 -30 6 0 7 5 4 10 -3 6 -1 10 4 10 6 0
11 5 11 10 0 6 -6 10 -14 10 -8 0 -18 -4 -21 -10z"/>
<path d="M1757 1120 c-3 -13 0 -20 9 -20 8 0 11 6 8 15 -4 10 0 15 11 15 11 0
15 -5 11 -15 -3 -9 0 -15 9 -15 8 0 15 9 15 20 0 15 -7 20 -29 20 -20 0 -30
-6 -34 -20z"/>
<path d="M2171 1126 c-9 -10 -9 -16 -1 -21 12 -7 40 11 40 26 0 14 -26 10 -39
-5z"/>
<path d="M2846 1110 l-17 -35 22 21 c12 12 19 28 17 35 -3 8 -12 -1 -22 -21z"/>
<path d="M2306 1113 c-6 -14 -5 -15 5 -6 7 7 10 15 7 18 -3 3 -9 -2 -12 -12z"/>
<path d="M75 1042 c-3 -3 -5 -31 -5 -63 0 -61 7 -70 50 -59 61 15 55 108 -8
121 -17 3 -34 4 -37 1z m53 -35 c6 -7 9 -22 7 -32 -2 -11 -4 -23 -4 -27 -1 -5
-9 -8 -19 -8 -14 0 -17 7 -14 40 4 42 12 49 30 27z"/>
<path d="M186 1035 c-10 -11 -14 -100 -5 -110 6 -5 30 -8 57 -6 33 2 27 21 -8
21 -20 0 -30 5 -30 15 0 10 10 15 30 15 30 0 43 19 15 21 -32 3 -35 4 -32 14
2 10 6 11 35 14 6 0 12 5 12 10 0 14 -61 19 -74 6z"/>
<path d="M470 986 c0 -36 4 -66 9 -66 15 0 18 110 4 122 -10 8 -13 -4 -13 -56z"/>
<path d="M770 983 c0 -51 3 -63 16 -63 11 0 15 6 11 20 -8 30 11 35 25 6 6
-15 20 -26 30 -26 18 0 18 1 2 26 -14 21 -15 27 -4 34 8 5 10 17 6 33 -5 20
-13 26 -46 29 l-40 4 0 -63z m60 22 c0 -8 -6 -15 -14 -15 -8 0 -16 7 -20 15
-4 10 1 15 14 15 11 0 20 -7 20 -15z"/>
<path d="M1129 1033 c-2 -26 -2 -74 0 -101 2 -34 21 -16 22 21 l1 32 7 -30 c3
-17 13 -30 21 -30 8 0 18 13 21 30 l7 30 1 -32 c0 -19 6 -33 14 -33 17 0 13
110 -4 121 -15 9 -29 -7 -29 -33 0 -10 -4 -18 -10 -18 -5 0 -10 9 -10 20 0 10
-9 24 -20 30 -16 9 -20 8 -21 -7z"/>
<path d="M1250 977 c0 -59 2 -68 14 -57 8 6 12 18 9 26 -3 8 1 14 11 14 9 0
25 9 36 20 28 28 12 56 -35 62 l-35 4 0 -69z m55 33 c3 -6 -1 -13 -10 -16 -19
-8 -30 0 -20 15 8 14 22 14 30 1z"/>
<path d="M1416 1040 c-3 -8 -7 -33 -8 -55 -2 -28 -8 -40 -18 -40 -11 0 -16 13
-18 48 -4 56 -21 63 -23 10 -2 -55 1 -67 17 -79 17 -13 54 -7 60 10 14 42 5
146 -10 106z"/>
<path d="M1659 1037 c-19 -10 -25 -22 -27 -54 -3 -35 1 -44 21 -58 20 -13 29
-14 51 -4 30 14 36 53 9 63 -23 9 -43 -12 -23 -24 8 -5 11 -12 7 -17 -10 -10
-41 10 -45 29 -5 24 27 51 44 37 15 -12 38 -3 29 12 -13 21 -42 28 -66 16z"/>
<path d="M1955 1041 c-11 -11 -4 -21 15 -21 25 0 25 -5 -2 -48 l-22 -36 -17
40 c-10 21 -18 45 -18 52 -1 8 -8 12 -17 10 -10 -2 -24 -25 -34 -58 -18 -57
-12 -74 16 -46 19 20 19 20 38 0 17 -16 113 -26 122 -12 3 4 11 5 19 1 12 -4
15 7 15 61 0 51 -3 64 -14 60 -9 -4 -13 -21 -12 -55 2 -28 0 -51 -3 -53 -3 -1
-19 0 -34 3 l-28 6 26 34 c25 34 32 60 18 62 -37 4 -65 4 -68 0z m-55 -56 c0
-8 -4 -15 -10 -15 -5 0 -7 7 -4 15 4 8 8 15 10 15 2 0 4 -7 4 -15z"/>
<path d="M2117 1043 c-12 -21 -38 -115 -34 -120 3 -3 16 2 29 11 28 20 38 20
38 1 0 -8 7 -15 16 -15 10 0 14 6 11 14 -3 8 -11 32 -18 55 -12 42 -33 69 -42
54z m23 -63 c0 -5 -4 -10 -10 -10 -5 0 -10 5 -10 10 0 6 5 10 10 10 6 0 10 -4
10 -10z"/>
<path d="M2208 1042 c-15 -3 -18 -14 -18 -61 0 -32 2 -60 5 -63 3 -3 22 -2 43
1 35 6 37 8 38 46 0 22 -2 47 -4 57 -4 17 -34 26 -64 20z m42 -37 c0 -8 -6
-15 -14 -15 -17 0 -28 14 -19 24 12 12 33 6 33 -9z m0 -50 c0 -8 -6 -15 -14
-15 -17 0 -28 14 -19 24 12 12 33 6 33 -9z"/>
<path d="M2327 1043 c-2 -4 -12 -32 -21 -60 -18 -55 -13 -92 8 -57 13 23 37
25 53 4 21 -27 25 -2 8 49 -16 49 -39 80 -48 64z m23 -63 c0 -5 -4 -10 -10
-10 -5 0 -10 5 -10 10 0 6 5 10 10 10 6 0 10 -4 10 -10z"/>
<path d="M2419 1043 c-13 -3 -17 -17 -17 -63 0 -53 2 -58 24 -63 38 -7 64 18
64 62 0 48 -29 73 -71 64z m41 -43 c14 -27 3 -62 -18 -58 -11 2 -16 15 -17 41
-1 41 17 50 35 17z"/>
<path d="M2565 1040 c-18 -29 -24 -77 -15 -112 17 -62 25 -50 25 38 0 46 -1
84 -2 84 -1 0 -5 -5 -8 -10z"/>
<path d="M2758 1042 c-14 -3 -17 -14 -17 -63 1 -45 5 -59 16 -59 10 0 13 6 9
16 -4 10 3 18 23 25 34 12 45 33 31 58 -10 20 -35 29 -62 23z m39 -39 c2 -6
-3 -13 -12 -16 -10 -5 -15 0 -15 14 0 21 21 22 27 2z"/>
<path d="M279 1028 c-1 -15 -1 -100 0 -108 1 -5 25 -5 64 -1 19 2 4 21 -18 21
-23 0 -25 3 -25 50 0 28 -4 50 -10 50 -5 0 -10 -6 -11 -12z"/>
<path d="M365 986 c0 -31 6 -61 13 -67 10 -11 12 -7 12 19 0 26 4 32 20 32 12
0 20 -6 19 -12 -3 -29 2 -49 11 -43 6 3 10 33 10 66 0 33 -4 59 -10 59 -5 0
-11 -4 -11 -10 -1 -5 -2 -16 -3 -22 0 -7 -9 -14 -18 -16 -14 -3 -18 3 -18 22
0 14 -6 26 -13 26 -8 0 -12 -17 -12 -54z"/>
<path d="M560 973 c1 -60 2 -66 15 -50 7 11 12 27 10 38 -5 28 2 23 20 -11 25
-49 40 -38 41 30 0 39 -3 59 -10 57 -6 -2 -11 -13 -11 -24 0 -34 -11 -36 -25
-3 -22 54 -40 38 -40 -37z"/>
<path d="M672 1018 c-12 -23 -11 -66 1 -85 12 -18 45 -21 67 -6 15 11 18 19
11 26 -7 7 -15 6 -25 -2 -21 -18 -36 -5 -36 29 0 33 16 48 33 31 6 -6 17 -11
24 -11 11 0 11 5 3 20 -15 28 -63 27 -78 -2z"/>
<path d="M924 1026 c-10 -26 -12 -71 -3 -87 12 -24 44 -29 69 -12 17 12 19 18
9 29 -10 12 -13 12 -24 -2 -16 -23 -35 -9 -35 26 0 34 15 47 35 30 20 -16 40
-3 24 16 -15 18 -68 18 -75 0z"/>
<path d="M1032 980 c-17 -49 -18 -60 -6 -60 8 0 14 4 14 9 0 19 31 20 47 1 22
-25 34 -16 23 18 -34 111 -50 118 -78 32z m42 5 c3 -9 0 -15 -9 -15 -9 0 -12
6 -9 15 4 8 7 15 9 15 2 0 5 -7 9 -15z"/>
<path d="M1457 1033 c-11 -22 1 -49 26 -61 21 -10 26 -17 18 -25 -8 -8 -14 -8
-23 1 -16 16 -28 15 -28 -3 0 -30 72 -40 83 -11 8 19 -11 54 -32 61 -12 3 -21
11 -21 16 0 13 14 11 28 -3 15 -15 26 -4 19 17 -6 15 -62 22 -70 8z"/>
<path d="M1745 980 c0 -41 4 -60 12 -60 7 0 13 11 13 25 0 19 5 25 21 25 16 0
20 -5 16 -19 -2 -10 -1 -25 4 -32 16 -26 28 44 20 114 -2 17 -20 5 -23 -15 -5
-34 -38 -37 -38 -4 0 14 -6 26 -13 26 -9 0 -12 -18 -12 -60z"/>
<path d="M2598 1023 c-7 -39 5 -94 23 -104 27 -14 59 5 60 36 3 70 1 85 -10
85 -6 0 -11 -21 -13 -47 -2 -35 -7 -48 -18 -48 -11 0 -16 13 -18 48 -3 46 -17
64 -24 30z"/>
<path d="M2845 961 c0 -85 14 -95 25 -19 6 41 -5 98 -18 98 -4 0 -7 -36 -7
-79z"/>
<path d="M506 964 c-4 -10 2 -14 19 -14 14 0 25 6 25 13 0 18 -37 19 -44 1z"/>
<path d="M2705 939 c-10 -15 3 -25 16 -12 7 7 7 13 1 17 -6 3 -14 1 -17 -5z"/>
<path d="M1553 913 c0 -25 0 -25 13 -8 13 18 11 35 -5 35 -5 0 -8 -12 -8 -27z"/>
</g>
</svg>
